<?xml version="1.0" standalone="no"?>
<!DOCTYPE svg PUBLIC "-//W3C//DTD SVG 20010904//EN"
 "http://www.w3.org/TR/2001/REC-SVG-20010904/DTD/svg10.dtd">
<svg version="1.0" xmlns="http://www.w3.org/2000/svg"
 width="463.000000pt" height="128.000000pt" viewBox="0 0 463.000000 128.000000"
 preserveAspectRatio="xMidYMid meet">
<metadata>
Created by potrace 1.15, written by Peter Selinger 2001-2017
</metadata>
<g transform="translate(0.000000,128.000000) scale(0.100000,-0.100000)"
fill="#000000" stroke="none">
<path d="M664 1176 c-223 -71 -394 -293 -394 -513 0 -40 4 -53 15 -53 11 0 15
12 15 45 0 49 18 146 29 158 4 4 20 3 35 -3 24 -9 25 -12 15 -32 -14 -25 -24
-175 -15 -212 13 -52 21 -24 18 61 -2 65 2 104 16 149 17 55 79 164 93 164 3
0 15 -11 27 -23 l22 -24 -20 -26 c-46 -59 -100 -227 -72 -227 5 0 12 21 16 48
9 66 52 156 71 148 8 -3 48 -31 90 -62 63 -48 73 -59 65 -74 -15 -28 -12 -97
5 -130 47 -90 168 -107 242 -33 l36 37 63 -35 c35 -19 64 -37 64 -40 0 -10
-51 -74 -78 -97 l-27 -23 28 17 c25 15 32 16 50 5 21 -13 21 -12 5 5 -16 16
-16 19 3 45 48 67 66 139 59 229 -2 19 -6 -5 -10 -53 -4 -48 -12 -93 -18 -99
-7 -7 -29 0 -73 25 l-63 36 3 45 c3 51 -16 94 -56 126 -29 23 -29 26 14 127
l13 32 34 -20 c45 -26 104 -92 123 -136 8 -19 17 -33 20 -30 3 4 -4 25 -17 49
-21 40 -21 43 -4 55 26 19 32 17 53 -24 11 -21 20 -33 21 -27 0 20 -58 100
-102 139 -45 40 -46 41 -31 69 8 15 13 30 10 32 -2 3 -10 -9 -17 -26 -9 -23
-17 -29 -29 -24 -93 39 -206 54 -256 35 -12 -5 12 -9 65 -9 99 0 162 -20 239
-76 57 -42 69 -63 44 -82 -16 -11 -23 -8 -53 20 -50 47 -82 64 -147 81 -67 17
-73 18 -73 6 0 -5 23 -11 50 -15 28 -4 50 -10 50 -14 0 -4 -10 -35 -22 -69
l-22 -63 -49 0 c-50 0 -78 -10 -112 -41 -20 -17 -22 -16 -100 42 -44 33 -81
64 -83 68 -5 14 89 92 136 114 26 11 42 22 35 24 -14 5 -86 -31 -130 -65 -31
-23 -34 -24 -58 -8 -14 9 -25 21 -25 26 0 17 108 91 167 116 32 13 51 24 43
24 -9 0 -49 -16 -89 -35 -84 -41 -175 -126 -205 -193 -15 -32 -25 -42 -43 -42
-37 0 -38 24 -3 84 63 111 172 197 300 239 39 13 72 27 73 33 3 14 -34 14 -79
0z"/>
<path d="M4099 971 c-120 -39 -159 -185 -70 -265 11 -10 55 -31 98 -46 94 -32
119 -61 93 -107 -25 -46 -74 -51 -148 -18 -33 15 -65 24 -71 20 -6 -3 -18 -19
-26 -35 -14 -27 -14 -30 11 -49 30 -23 113 -51 153 -51 71 0 147 43 176 101
19 36 19 112 1 148 -19 36 -45 52 -126 81 -36 13 -73 30 -82 38 -25 21 -23 67
4 86 30 21 64 20 118 -5 l45 -20 22 26 c13 14 23 33 23 40 0 38 -155 77 -221
56z"/>
<path d="M1570 700 l0 -270 55 0 55 0 0 270 0 270 -55 0 -55 0 0 -270z"/>
<path d="M2260 700 l0 -270 55 0 55 0 0 106 0 107 32 -7 c18 -3 36 -12 40 -19
4 -6 31 -50 61 -97 l53 -85 67 -3 67 -3 -61 93 c-33 51 -69 102 -80 114 -19
20 -19 21 18 45 53 33 75 81 70 147 -4 61 -29 94 -92 123 -32 15 -65 19 -162
19 l-123 0 0 -270z m209 180 c41 -11 60 -35 61 -75 0 -58 -51 -95 -132 -95
l-28 0 0 90 0 90 33 0 c17 0 47 -4 66 -10z"/>
<path d="M3230 700 l0 -270 55 0 55 0 0 270 0 270 -55 0 -55 0 0 -270z"/>
<path d="M1357 587 c-7 -53 -34 -145 -47 -161 -5 -4 -36 4 -69 19 -34 16 -64
26 -66 23 -3 -2 23 -17 58 -33 34 -16 63 -30 65 -31 2 -1 -9 -21 -24 -45 -55
-88 -165 -174 -266 -210 -45 -16 -54 -45 -10 -34 119 29 271 156 329 276 51
103 80 249 49 249 -9 0 -15 -18 -19 -53z"/>
<path d="M276 553 c47 -267 282 -463 554 -463 87 0 120 7 120 25 0 10 -18 12
-80 8 -159 -11 -306 43 -414 151 -75 75 -108 132 -86 146 25 16 34 12 63 -34
40 -64 117 -131 191 -168 48 -23 66 -38 67 -53 1 -17 2 -17 6 -2 4 15 12 17
70 11 79 -8 81 10 3 20 -63 8 -148 41 -185 70 l-29 23 42 51 c58 69 52 79 -8
12 l-49 -55 -41 40 c-23 22 -58 73 -78 114 -21 42 -38 68 -40 58 -2 -9 2 -25
7 -36 9 -16 8 -22 -8 -31 -11 -5 -24 -10 -30 -10 -9 0 -28 56 -45 133 -4 15
-13 27 -22 27 -12 0 -14 -8 -8 -37z"/>
</g>
</svg>
