<?xml version="1.0" standalone="no"?>
<!DOCTYPE svg PUBLIC "-//W3C//DTD SVG 20010904//EN"
 "http://www.w3.org/TR/2001/REC-SVG-20010904/DTD/svg10.dtd">
<svg version="1.0" xmlns="http://www.w3.org/2000/svg"
 width="225.000000pt" height="225.000000pt" viewBox="0 0 225.000000 225.000000"
 preserveAspectRatio="xMidYMid meet">
<metadata>
Created by potrace 1.15, written by Peter Selinger 2001-2017
</metadata>
<g transform="translate(0.000000,225.000000) scale(0.100000,-0.100000)"
fill="#000000" stroke="none">
<path d="M847 2088 c-25 -18 -78 -62 -118 -96 -74 -66 -75 -67 -144 -47 -37
11 -86 -34 -131 -119 -31 -57 -50 -82 -74 -94 -17 -8 -36 -27 -42 -41 -15 -39
-5 -140 19 -191 14 -30 23 -75 27 -134 7 -104 32 -229 52 -268 12 -24 13 -39
3 -89 -19 -95 -7 -185 36 -270 46 -93 82 -144 142 -200 59 -56 126 -102 198
-135 50 -23 58 -24 120 -13 36 6 69 8 72 5 4 -3 6 -26 6 -51 0 -72 -19 -87
-200 -155 -46 -17 -85 -35 -88 -40 -8 -14 95 -57 200 -85 139 -36 255 -46 439
-40 140 5 178 11 295 41 87 23 164 50 215 77 l81 42 -154 12 c-175 14 -224 29
-281 84 -57 55 -84 121 -95 231 -4 40 -1 48 19 61 40 27 100 96 128 148 24 46
33 54 100 83 136 59 204 119 255 226 54 112 39 287 -32 392 l-24 36 19 75 c14
51 17 83 11 103 -5 17 -47 68 -97 118 -67 66 -105 96 -154 118 -115 53 -135
66 -152 101 -10 20 -30 39 -48 47 -32 13 -186 18 -323 11 l-77 -5 -48 47 c-59
58 -90 61 -155 15z m253 -240 c73 -44 119 -120 120 -196 0 -86 -30 -129 -180
-261 -56 -50 -80 -80 -104 -130 -29 -63 -31 -73 -32 -191 -1 -160 1 -152 -31
-148 -38 4 -61 55 -69 150 -15 168 42 291 193 423 91 79 129 137 114 177 -17
45 -59 85 -104 97 -37 11 -49 10 -100 -9 -70 -26 -132 -72 -169 -125 -22 -31
-29 -56 -34 -113 -6 -61 -11 -76 -29 -88 -39 -26 -73 6 -90 84 -15 73 65 214
164 286 75 55 133 75 221 76 68 0 81 -3 130 -32z m-134 -1063 c32 -7 58 -64
49 -111 -6 -33 -48 -77 -84 -89 -47 -14 -97 32 -108 99 -10 63 40 121 95 110
12 -2 34 -6 48 -9z"/>
</g>
</svg>
